<?xml version="1.0" encoding="iso-8859-1"?>
<!-- Uploaded to: SVG Repo, www.svgrepo.com, Transformed by: SVG Repo Mixer Tools -->
<svg fill="#000000" height="800px" width="800px" version="1.1" id="Layer_1" xmlns="http://www.w3.org/2000/svg" xmlns:xlink="http://www.w3.org/1999/xlink" 
	 viewBox="0 0 512 512" xml:space="preserve">
<g>
	<g>
		<path d="M488.045,369.74L512,355.908l-23.955-13.831c-2.105-1.215-45.984-26.193-104.739-32.696
			c43.143-48.994,57.504-105.653,58.137-108.213l6.333-25.666l-25.666,6.334c-2.577,0.636-59.937,15.176-109.139,58.955
			c0.32-6.317,0.48-12.583,0.48-18.783c0-100.872-41.522-181.653-43.29-185.043L256,9.81l-14.161,27.155
			c-1.768,3.39-43.29,84.171-43.29,185.043c0,6.2,0.16,12.466,0.48,18.783c-49.202-43.779-106.563-58.319-109.139-58.955
			l-25.666-6.334l6.333,25.666c0.632,2.56,15,59.222,58.138,108.213c-58.755,6.505-102.636,31.482-104.74,32.696L0,355.907
			l23.955,13.831c2.42,1.398,60.12,34.235,132.141,34.235c2.613,0,5.243-0.045,7.887-0.132
			c-16.445,28.46-20.554,55.701-20.775,57.237l-3.038,21.119l21.12-3.038c1.923-0.277,44.259-6.67,78.737-35.821v58.852h31.943
			v-58.852c34.478,29.153,76.814,35.546,78.737,35.823l21.12,3.038l-3.038-21.119c-0.221-1.534-4.328-28.775-20.776-57.237
			c2.644,0.088,5.275,0.132,7.888,0.132C427.925,403.974,485.625,371.138,488.045,369.74z M301.553,395.464
			c0.464,0.446,0.925,0.898,1.378,1.349c13.588,13.588,22.053,30.202,27.168,43.702c-13.443-5.091-29.988-13.549-43.655-27.215
			c-6.187-6.187-11.807-13.513-16.706-21.773l-13.736-23.164l-13.736,23.164c-4.9,8.26-10.52,15.586-16.706,21.773
			c-13.563,13.562-30.14,22.022-43.626,27.14c5.118-13.489,13.576-30.062,27.133-43.621c0.458-0.458,0.919-0.909,1.383-1.354
			l38.188-36.744l-52.132,9.523c-13.763,2.514-27.357,3.788-40.407,3.788c-33.371,0-63.751-8.273-85.069-16.124
			c21.321-7.853,51.702-16.125,85.069-16.125c3.268,0,6.677,0.085,10.135,0.253l48.644,2.363l-37.798-30.711
			c-5.551-4.51-10.825-9.256-15.675-14.105c-24.297-24.298-39.845-52.872-48.984-73.926c21.001,9.105,49.496,24.626,73.89,49.02
			c7.493,7.493,14.649,15.901,21.268,24.99l40.572,55.707L236.219,285.5c-3.799-21.609-5.725-42.972-5.725-63.494
			c0-55.615,14.117-105.472,25.508-136.649c11.393,31.18,25.508,81.034,25.508,136.649c0,20.522-1.926,41.885-5.725,63.494
			l-11.933,67.876l40.572-55.707c6.62-9.09,13.776-17.497,21.268-24.99c24.273-24.272,52.814-39.813,73.861-48.955
			c-9.143,21.051-24.682,49.588-48.954,73.861c-4.851,4.849-10.125,9.596-15.677,14.107l-37.792,30.711l48.64-2.363
			c3.465-0.168,6.874-0.253,10.135-0.253c33.367,0,63.748,8.272,85.068,16.124c-21.32,7.853-51.701,16.125-85.068,16.125
			c-13.051,0-26.644-1.274-40.407-3.788l-52.132-9.523L301.553,395.464z"/>
	</g>
</g>
</svg>